# xmcd CD database file
#
# Track frame offsets:
#	150
#	12851
#	22777
#	34618
#	47276
#	58775
#	77771
#	94719
#	113403
#	127219
#	141942
#	157828
#	169742
#
# Disc length: 2437 seconds
#
# Revision: 0
# Processed by: cddbd v1.5.2PL0 Copyright (c) Steve Scherf et al.
# Submitted via: CDex 1.51
#
DISCID=9309830d
DTITLE=Various Artist - CitySky03
DYEAR=1995
DGENRE=Country
TTITLE0=500 MILES 離家五百哩
TTITLE1=EDEL WEISS 小白花
TTITLE2=RHYTHM OF THE RAIN 雨的旋律
TTITLE3=I LOVE YOU BECAUSE  因為我愛你
TTITLE4=ONE DAY WHEN WE WERE YOUNG 當我倆年輕時
TTITLE5=NOBODY'S CHILD 孤兒
TTITLE6=OPERATOR 接線生
TTITLE7=AND I LOVE YOU SO 我是如此愛你
TTITLE8=TENNESSEE WALTZ 田納西華爾滋
TTITLE9=OVER AND OVER 一次又一次
TTITLE10=CRYING IN THE RAIN 在雨中哭泣
TTITLE11=WHEN THE CHILD'S BORN 當孩子出生
TTITLE12=COME ON 來吧
EXTD=YEAR: 1995
EXTT0=
EXTT1=
EXTT2=
EXTT3=
EXTT4=
EXTT5=
EXTT6=
EXTT7=
EXTT8=
EXTT9=
EXTT10=
EXTT11=
EXTT12=
PLAYORDER=
